<svg width="531" height="277" viewBox="0 0 531 277" fill="none" xmlns="http://www.w3.org/2000/svg">
<path d="M71.6282 35.26C81.9745 35.26 91.127 36.754 99.0857 39.7422C107.044 42.5311 113.71 46.3161 119.082 51.0971C124.454 55.8781 128.433 61.3563 131.02 67.5318C133.805 73.7073 135.198 80.082 135.198 86.6559C135.198 93.2298 134.402 98.9072 132.811 103.688C131.418 108.469 129.229 112.852 126.245 116.836C123.459 120.621 119.977 124.406 115.799 128.191C111.621 131.777 106.746 135.761 101.175 140.143C95.8027 144.327 92.0223 148.211 89.8337 151.797C87.844 155.184 86.8492 159.865 86.8492 165.841V176.599H49.8413V165.841C49.8413 159.865 50.3387 154.586 51.3335 150.004C52.5274 145.422 54.3181 141.14 56.7057 137.155C59.0933 133.171 62.1773 129.386 65.9576 125.8C69.738 122.015 74.3143 117.932 79.6864 113.549C85.2575 109.166 89.6347 105.083 92.8182 101.298C96.0017 97.5128 97.5934 93.0306 97.5934 87.8511C97.5934 82.0741 95.1063 77.6915 90.1322 74.7033C85.3569 71.516 79.189 69.9223 71.6282 69.9223C62.6747 69.9223 55.4124 72.1136 49.8413 76.4962C44.4692 80.6796 40.8878 86.3571 39.0971 93.5286H0C1.39277 85.361 4.07883 77.7911 8.05817 70.8188C12.2365 63.6472 17.4096 57.4718 23.5776 52.2923C29.7456 46.9137 36.9084 42.7303 45.0661 39.7422C53.2237 36.754 62.0778 35.26 71.6282 35.26ZM45.9614 193.033H90.4306V237.557H45.9614V193.033Z" fill="#363636"/>
<path d="M360.221 237.557H309.186L282.922 214.548C274.565 222.716 265.612 229.289 256.061 234.27C246.71 239.051 236.065 241.441 224.127 241.441C213.781 241.441 204.728 239.947 196.968 236.959C189.208 233.772 182.742 229.688 177.569 224.708C172.396 219.727 168.516 214.05 165.929 207.675C163.343 201.301 162.049 194.727 162.049 187.954C162.049 182.376 162.746 177.296 164.139 172.714C165.531 168.132 167.422 163.949 169.809 160.164C172.396 156.379 175.48 152.893 179.061 149.706C182.643 146.319 186.721 142.932 191.298 139.546L197.267 135.064L194.581 132.374C191.795 129.785 189.01 126.896 186.224 123.709C183.438 120.521 180.951 117.135 178.763 113.549C176.574 109.963 174.684 106.079 173.092 101.895C171.699 97.712 171.003 93.2298 171.003 88.4488C171.003 79.8828 172.595 72.3128 175.778 65.7389C179.161 58.9658 183.538 53.388 188.91 49.0054C194.481 44.4236 200.649 41.037 207.414 38.8457C214.378 36.4552 221.441 35.26 228.604 35.26C237.16 35.26 245.019 36.5548 252.182 39.1445C259.543 41.5351 265.811 45.0212 270.984 49.603C276.356 54.1848 280.534 59.7627 283.519 66.3366C286.503 72.7113 287.996 79.8828 287.996 87.8511C287.996 93.0306 287.1 97.9112 285.31 102.493C283.718 106.876 281.529 111.059 278.744 115.043C276.157 119.027 272.974 122.713 269.193 126.099C265.612 129.486 261.931 132.574 258.151 135.362L252.48 139.546L281.43 165.543L336.643 106.975V154.785L305.604 188.252L360.221 237.557ZM229.201 68.4283C226.614 68.4283 224.028 68.8267 221.441 69.6235C218.855 70.4203 216.467 71.6156 214.278 73.2093C212.289 74.8029 210.597 76.795 209.205 79.1855C207.812 81.576 207.116 84.365 207.116 87.5523C207.116 91.7357 208.707 95.8195 211.891 99.8037C215.074 103.788 218.158 107.174 221.143 109.963L228.007 116.238L237.558 109.067C247.108 102.095 251.883 94.8234 251.883 87.2535C251.883 82.0741 249.595 77.6915 245.019 74.1057C240.642 70.3207 235.369 68.4283 229.201 68.4283ZM223.829 206.779C230.793 206.779 237.06 205.185 242.631 201.998C248.401 198.81 253.574 195.026 258.151 190.643L221.74 158.072L215.472 162.853C210.896 166.24 206.817 169.925 203.236 173.909C199.853 177.694 198.162 182.177 198.162 187.356C198.162 192.535 200.45 197.117 205.026 201.101C209.603 204.886 215.87 206.779 223.829 206.779Z" fill="#363636"/>
<path d="M429.825 239.35C421.071 237.756 413.311 235.166 406.546 231.58C399.781 227.995 393.812 223.811 388.639 219.03C383.665 214.05 379.387 208.472 375.806 202.297C372.423 196.121 369.737 189.547 367.747 182.575H407.143C411.321 190.942 417.29 197.018 425.05 200.803C433.009 204.588 442.261 206.48 452.806 206.48C464.147 206.48 473.2 204.289 479.965 199.906C486.73 195.324 490.112 189.348 490.112 181.977C490.112 175.603 487.526 170.124 482.353 165.543C477.179 160.762 468.027 157.574 454.895 155.981L436.093 153.59C424.155 152.196 414.206 149.705 406.248 146.12C398.289 142.335 391.822 137.853 386.848 132.673C381.874 127.494 378.293 121.816 376.104 115.641C374.114 109.266 373.12 102.692 373.12 95.9191C373.12 80.7792 378.094 67.9302 388.042 57.3722C398.189 46.6149 412.117 39.7422 429.825 36.754V0H466.535V37.0529C475.488 38.6465 483.546 41.3358 490.709 45.1208C498.071 48.7066 504.438 53.0892 509.81 58.2686C515.182 63.2488 519.559 68.8267 522.942 75.0022C526.523 81.1776 529.209 87.5523 531 94.1262H491.903C489.117 86.5563 483.646 80.6796 475.488 76.4962C467.33 72.3128 457.88 70.2211 447.135 70.2211C435.993 70.2211 427.338 72.6116 421.17 77.3927C415.201 82.1737 412.217 87.9507 412.217 94.7238C412.217 101.298 414.803 106.676 419.976 110.86C425.348 114.844 434.7 117.732 448.031 119.525L465.938 121.916C476.881 123.31 486.332 125.8 494.291 129.386C502.249 132.773 508.815 137.056 513.988 142.235C519.161 147.215 522.942 152.893 525.329 159.268C527.916 165.642 529.209 172.415 529.209 179.587C529.209 186.758 527.817 193.731 525.031 200.504C522.444 207.277 518.465 213.452 513.093 219.03C507.92 224.409 501.453 229.09 493.694 233.074C485.934 236.859 476.881 239.35 466.535 240.545V277H429.825V239.35Z" fill="#363636"/>
</svg>
