<svg width="892" height="587" viewBox="0 0 892 587" fill="none" xmlns="http://www.w3.org/2000/svg">
<path d="M193.049 169.655C303.443 169.655 381.527 227.096 381.527 326.72V587H322.291V536.739C289.083 574.435 240.617 598.668 175.996 598.668C81.757 598.668 8.16064 554.689 8.16064 466.733C8.16064 373.391 86.2445 334.798 179.586 334.798H322.291V326.72C322.291 253.124 265.748 223.506 191.254 223.506C127.53 223.506 81.757 253.124 64.7042 291.717H0.980512C24.3159 215.428 97.9123 169.655 193.049 169.655ZM322.291 420.062V388.649H177.791C109.58 388.649 67.3967 414.677 67.3967 466.733C67.3967 518.789 112.273 544.817 176.894 544.817C271.133 544.817 322.291 483.786 322.291 420.062Z" fill="#3B3B3B"/>
<path d="M981.061 587L918.235 444.295H575.384L512.558 587H447.039L709.114 -8.95073H785.403L1046.58 587H981.061ZM746.809 55.6705L600.514 387.751H893.105L746.809 55.6705Z" fill="#91D92B"/>
</svg>
