<svg width="566" height="568" viewBox="0 0 566 568" fill="none" xmlns="http://www.w3.org/2000/svg">
<g clip-path="url(#clip0_161_67)">
<rect width="565.986" height="567.58" rx="16.836" fill="url(#paint0_radial_161_67)"/>
<path d="M189.684 297.795L189.684 297.808V297.821V483.451V669.081V669.094L189.684 669.107C189.959 675.153 191.912 684.526 196.884 693.056C201.862 701.599 209.885 709.321 222.287 711.967C246.677 717.17 329.535 742.338 367.958 754.286C371.668 755.681 377.3 756.111 382.107 752.792C386.932 749.459 390.763 742.46 391.091 729.344C391.743 703.28 391.363 554.549 391.091 483.451C391.363 412.353 391.743 263.622 391.091 237.558C390.763 224.442 386.932 217.443 382.107 214.11C377.301 210.791 371.669 211.221 367.958 212.616C329.536 224.564 246.677 249.732 222.287 254.935C209.885 257.581 201.862 265.303 196.884 273.846C191.912 282.376 189.959 291.749 189.684 297.795Z" fill="#7B848C" stroke="white" stroke-width="1.1224"/>
<path d="M359.005 209.515L376.917 212.364V217.656L359.005 220.099V209.515Z" fill="#7B848C"/>
<path d="M173.222 295.177L173.222 295.189V295.202V480.832V666.462V666.475L173.222 666.488C173.497 672.534 175.451 681.907 180.422 690.437C185.401 698.98 193.424 706.702 205.826 709.348C230.215 714.551 313.074 739.719 351.496 751.667C355.207 753.062 360.839 753.492 365.645 750.173C370.47 746.84 374.301 739.842 374.629 726.725C375.281 700.661 374.901 551.93 374.629 480.832C374.901 409.734 375.281 261.003 374.629 234.94C374.301 221.823 370.47 214.824 365.645 211.492C360.839 208.172 355.207 208.602 351.496 209.998C313.074 221.945 230.216 247.113 205.826 252.316C193.424 254.962 185.401 262.685 180.422 271.227C175.451 279.758 173.497 289.13 173.222 295.177Z" fill="#676464" stroke="white" stroke-width="1.1224"/>
<path d="M210.275 269.963C187.389 274.845 180.651 298.443 180.142 309.631V483.564V657.496C180.651 668.685 187.389 692.283 210.275 697.165C233.161 702.047 310.846 725.645 346.827 736.834C353.566 739.377 367.196 738.359 367.806 713.948C368.416 689.536 368.06 550.187 367.806 483.564C368.06 416.941 368.416 277.591 367.806 253.18C367.196 228.768 353.566 227.751 346.827 230.294C310.846 241.482 233.161 265.08 210.275 269.963Z" fill="#363232"/>
<path d="M368.256 404.162C331.268 349.317 227.424 430.203 180.125 477.501V543.665L368.256 492.647V404.162Z" fill="#ABABAB"/>
<path d="M368.256 640.122C331.268 694.967 227.424 614.082 180.125 566.783V500.619L368.256 551.637V640.122Z" fill="#D7D7D7"/>
<path d="M368.256 450.397C331.268 505.242 227.424 424.357 180.125 377.058V310.894L368.256 361.912V450.397Z" fill="#D7D7D7"/>
<path d="M57.575 100.069C50.453 100.069 45.2258 105.884 45.2258 113.529C45.2258 121.174 50.453 126.989 57.575 126.989C61.6261 126.989 64.893 125.225 67.0492 122.48H77.8956C74.4326 130.713 67.3106 136.071 57.575 136.071C44.7684 136.071 35.0982 126.531 35.0982 113.529C35.0982 100.526 44.7684 90.9867 57.575 90.9867C67.3106 90.9867 74.4326 96.4099 77.8956 104.577H67.0492C64.893 101.898 61.6261 100.069 57.575 100.069ZM98.3852 102.748C108.251 102.748 114.72 107.452 114.72 115.816V135.222H104.919V132.935C102.763 135.352 98.7773 136.071 95.1182 136.071C87.2775 136.071 82.8997 131.889 82.8997 125.159C82.8997 116.992 91.0018 115.293 98.3852 115.293H104.919C104.919 112.353 101.587 111.242 98.5812 111.242C95.7716 111.242 93.4847 111.83 92.374 113.986H82.181C84.2065 106.146 91.5246 102.748 98.3852 102.748ZM104.919 123.134V122.219H98.4506C94.8569 122.219 92.7007 123.199 92.7007 125.29C92.7007 126.924 94.2688 128.492 97.4051 128.492C100.868 128.492 104.919 127.25 104.919 123.134ZM154.631 119.801L148.358 135.222H138.819L132.742 119.801V135.222H122.941V103.597H134.572L143.654 125.878L152.997 103.597H164.432V135.222H154.631V119.801ZM208.638 103.597H218.439V135.222H208.638V103.597ZM190.735 111.961C199.751 111.961 203.868 117.384 203.868 123.591C203.868 129.864 199.751 135.222 190.735 135.222H173.158V103.597H182.959V111.961H190.735ZM190.473 126.727C192.695 126.727 194.067 125.617 194.067 123.591C194.067 121.696 192.695 120.455 190.473 120.455H182.959V126.727H190.473ZM237.005 135.222H227.204V103.597H237.005V121.827L250.399 103.597H260.2V135.222H250.399V116.992L237.005 135.222ZM230.209 87.5237H238.181C238.377 90.3333 240.468 92.0322 243.669 92.0322C246.806 92.0322 248.897 90.3333 249.158 87.5237H257.064C256.672 94.7764 250.922 99.7422 243.669 99.7422C236.417 99.7422 230.667 94.7764 230.209 87.5237ZM313.25 114.705H303.384C301.947 112.418 299.529 111.765 297.308 111.765C292.995 111.765 290.055 114.705 290.055 119.344C290.055 124.049 292.995 127.054 297.308 127.054C299.529 127.054 301.947 126.401 303.384 124.114H313.25C310.898 131.497 304.495 136.071 297.308 136.071C287.572 136.071 280.254 128.949 280.254 119.344C280.254 109.739 287.572 102.748 297.308 102.748C304.495 102.748 310.898 107.322 313.25 114.705ZM348.007 119.148C349.641 120.324 351.078 122.807 351.078 125.355C351.078 130.713 347.55 135.222 339.97 135.222H320.172V103.597H339.513C347.092 103.597 350.621 108.171 350.621 113.464C350.621 115.62 349.575 117.776 348.007 119.148ZM337.879 116.012C339.774 116.012 340.82 114.901 340.82 113.529C340.82 112.157 339.774 111.177 337.879 111.177H329.973V116.012H337.879ZM338.337 127.642C340.232 127.642 341.277 126.531 341.277 125.094C341.277 123.787 340.232 122.676 338.337 122.676H329.973V127.642H338.337ZM390.611 119.279C390.611 120.52 390.611 121.239 390.48 122.415H366.762C367.742 125.421 370.617 127.12 374.014 127.12C375.909 127.12 378.065 126.793 379.372 125.29H390.022C387.605 131.824 380.744 136.071 374.014 136.071C364.017 136.071 356.569 128.884 356.569 119.409C356.569 109.935 363.756 102.748 373.688 102.748C383.75 102.748 390.611 109.935 390.611 119.279ZM367.088 115.554H380.156C379.568 112.614 376.889 111.046 373.688 111.046C370.551 111.046 367.611 112.81 367.088 115.554ZM416.341 103.597H426.142V115.489L436.662 103.597H449.272L434.571 119.344L449.272 135.222H436.466L426.142 124.114V135.222H416.341V124.114L406.017 135.222H393.146L407.912 119.344L393.146 103.597H405.821L416.341 115.489V103.597ZM464.098 135.222H454.297V103.597H464.098V121.827L477.493 103.597H487.294V135.222H477.493V116.992L464.098 135.222ZM505.829 135.222H496.028V103.597H505.829V121.827L519.223 103.597H529.024V135.222H519.223V116.992L505.829 135.222ZM499.033 87.5237H507.005C507.201 90.3333 509.292 92.0322 512.493 92.0322C515.63 92.0322 517.721 90.3333 517.982 87.5237H525.888C525.496 94.7764 519.746 99.7422 512.493 99.7422C505.241 99.7422 499.491 94.7764 499.033 87.5237Z" fill="white"/>
<path d="M39.2 154.08V159.024H47.672V161.04H39.2V168H37.04V152.064H47.84V154.08H39.2ZM55.3299 168.312C54.5779 168.312 53.9059 168.192 53.3139 167.952C52.7379 167.712 52.2499 167.376 51.8499 166.944C51.4499 166.512 51.1379 166 50.9139 165.408C50.7059 164.816 50.6019 164.168 50.6019 163.464V156.96H52.6659V163.296C52.6659 164.208 52.8979 164.952 53.3619 165.528C53.8419 166.104 54.5699 166.392 55.5459 166.392C55.9779 166.392 56.4019 166.312 56.8179 166.152C57.2339 165.976 57.6019 165.736 57.9219 165.432C58.2419 165.112 58.4979 164.72 58.6899 164.256C58.8819 163.792 58.9779 163.272 58.9779 162.696V156.96H61.0419V168H58.9779V166.8C58.6099 167.248 58.1139 167.616 57.4899 167.904C56.8819 168.176 56.1619 168.312 55.3299 168.312ZM67.7849 153.936V156.96H71.3129V158.784H67.7849V164.016C67.7849 164.736 67.9369 165.28 68.2409 165.648C68.5609 166 69.0809 166.176 69.8009 166.176H71.3129V168H69.6089C68.4089 168 67.4569 167.712 66.7529 167.136C66.0649 166.544 65.7209 165.648 65.7209 164.448V158.784H63.6809V156.96H65.7209V153.936H67.7849ZM78.7908 168.312C78.0388 168.312 77.3668 168.192 76.7748 167.952C76.1988 167.712 75.7108 167.376 75.3108 166.944C74.9108 166.512 74.5988 166 74.3748 165.408C74.1668 164.816 74.0628 164.168 74.0628 163.464V156.96H76.1268V163.296C76.1268 164.208 76.3588 164.952 76.8228 165.528C77.3028 166.104 78.0308 166.392 79.0068 166.392C79.4388 166.392 79.8628 166.312 80.2788 166.152C80.6948 165.976 81.0628 165.736 81.3828 165.432C81.7028 165.112 81.9588 164.72 82.1508 164.256C82.3428 163.792 82.4388 163.272 82.4388 162.696V156.96H84.5028V168H82.4388V166.8C82.0708 167.248 81.5748 167.616 80.9508 167.904C80.3428 168.176 79.6228 168.312 78.7908 168.312ZM90.4059 156.96V158.52C90.7099 158.088 91.1819 157.704 91.8219 157.368C92.4619 157.032 93.2859 156.864 94.2939 156.864H94.9419V158.832H94.2939C93.0779 158.832 92.1259 159.192 91.4379 159.912C90.7499 160.616 90.4059 161.544 90.4059 162.696V168H88.3419V156.96H90.4059ZM102.406 166.392C103.062 166.392 103.638 166.272 104.134 166.032C104.646 165.776 105.046 165.4 105.334 164.904H107.566C107.182 165.976 106.526 166.816 105.598 167.424C104.686 168.016 103.622 168.312 102.406 168.312C101.574 168.312 100.806 168.168 100.102 167.88C99.3979 167.592 98.7819 167.192 98.2539 166.68C97.7419 166.152 97.3419 165.528 97.0539 164.808C96.7659 164.088 96.6219 163.304 96.6219 162.456C96.6219 161.624 96.7579 160.856 97.0299 160.152C97.3179 159.448 97.7099 158.84 98.2059 158.328C98.7019 157.8 99.2939 157.392 99.9819 157.104C100.686 156.8 101.454 156.648 102.286 156.648C103.07 156.648 103.79 156.8 104.446 157.104C105.118 157.392 105.694 157.792 106.174 158.304C106.654 158.816 107.03 159.424 107.302 160.128C107.574 160.816 107.71 161.552 107.71 162.336C107.71 162.464 107.71 162.608 107.71 162.768C107.71 162.928 107.694 163.088 107.662 163.248H98.7579C98.8219 163.696 98.9579 164.112 99.1659 164.496C99.3739 164.88 99.6379 165.216 99.9579 165.504C100.278 165.776 100.646 165.992 101.062 166.152C101.478 166.312 101.926 166.392 102.406 166.392ZM102.286 158.568C101.326 158.568 100.534 158.832 99.9099 159.36C99.2859 159.888 98.9099 160.584 98.7819 161.448H105.55C105.422 160.584 105.07 159.888 104.494 159.36C103.934 158.832 103.198 158.568 102.286 158.568ZM122.698 152.064V154.08H117.178V168H115.018V154.08H109.498V152.064H122.698ZM127.906 166.392C128.562 166.392 129.138 166.272 129.634 166.032C130.146 165.776 130.546 165.4 130.834 164.904H133.066C132.682 165.976 132.026 166.816 131.098 167.424C130.186 168.016 129.122 168.312 127.906 168.312C127.074 168.312 126.306 168.168 125.602 167.88C124.898 167.592 124.282 167.192 123.754 166.68C123.242 166.152 122.842 165.528 122.554 164.808C122.266 164.088 122.122 163.304 122.122 162.456C122.122 161.624 122.258 160.856 122.53 160.152C122.818 159.448 123.21 158.84 123.706 158.328C124.202 157.8 124.794 157.392 125.482 157.104C126.186 156.8 126.954 156.648 127.786 156.648C128.57 156.648 129.29 156.8 129.946 157.104C130.618 157.392 131.194 157.792 131.674 158.304C132.154 158.816 132.53 159.424 132.802 160.128C133.074 160.816 133.21 161.552 133.21 162.336C133.21 162.464 133.21 162.608 133.21 162.768C133.21 162.928 133.194 163.088 133.162 163.248H124.258C124.322 163.696 124.458 164.112 124.666 164.496C124.874 164.88 125.138 165.216 125.458 165.504C125.778 165.776 126.146 165.992 126.562 166.152C126.978 166.312 127.426 166.392 127.906 166.392ZM127.786 158.568C126.826 158.568 126.034 158.832 125.41 159.36C124.786 159.888 124.41 160.584 124.282 161.448H131.05C130.922 160.584 130.57 159.888 129.994 159.36C129.434 158.832 128.698 158.568 127.786 158.568ZM144.31 160.176C144.022 159.68 143.622 159.288 143.11 159C142.598 158.712 142.014 158.568 141.358 158.568C140.814 158.568 140.318 158.672 139.87 158.88C139.422 159.072 139.03 159.344 138.694 159.696C138.374 160.048 138.118 160.464 137.926 160.944C137.75 161.424 137.662 161.936 137.662 162.48C137.662 163.024 137.75 163.536 137.926 164.016C138.118 164.496 138.374 164.912 138.694 165.264C139.03 165.616 139.422 165.896 139.87 166.104C140.318 166.296 140.814 166.392 141.358 166.392C142.014 166.392 142.598 166.248 143.11 165.96C143.622 165.672 144.022 165.28 144.31 164.784H146.566C146.166 165.856 145.502 166.712 144.574 167.352C143.662 167.992 142.59 168.312 141.358 168.312C140.542 168.312 139.782 168.168 139.078 167.88C138.374 167.576 137.766 167.168 137.254 166.656C136.742 166.128 136.334 165.512 136.03 164.808C135.742 164.088 135.598 163.312 135.598 162.48C135.598 161.648 135.742 160.88 136.03 160.176C136.334 159.456 136.742 158.84 137.254 158.328C137.766 157.8 138.374 157.392 139.078 157.104C139.782 156.8 140.542 156.648 141.358 156.648C142.59 156.648 143.662 156.968 144.574 157.608C145.502 158.248 146.166 159.104 146.566 160.176H144.31ZM155.345 156.648C156.097 156.648 156.769 156.768 157.361 157.008C157.969 157.248 158.473 157.584 158.873 158.016C159.289 158.448 159.601 158.96 159.809 159.552C160.033 160.144 160.145 160.792 160.145 161.496V168H158.081V161.664C158.081 160.752 157.841 160.008 157.361 159.432C156.881 158.856 156.137 158.568 155.129 158.568C154.681 158.568 154.241 158.656 153.809 158.832C153.393 158.992 153.025 159.232 152.705 159.552C152.385 159.856 152.121 160.24 151.913 160.704C151.721 161.168 151.625 161.688 151.625 162.264V168H149.561V151.944H151.625V158.16C151.993 157.712 152.489 157.352 153.113 157.08C153.737 156.792 154.481 156.648 155.345 156.648ZM174.672 161.736L170.16 168H167.712L173.424 160.032L167.712 152.064H170.184L174.672 158.304L179.16 152.064H181.632L175.896 160.032L181.632 168H179.184L174.672 161.736ZM186.608 154.56L183.2 157.632V154.992L186.512 152.064H188.768V168H186.608V154.56ZM217.525 160.896V162.84H197.893V160.896H217.525ZM228.557 161.568H234.029C233.869 160.688 233.469 159.968 232.829 159.408C232.205 158.848 231.429 158.568 230.501 158.568C229.829 158.568 229.229 158.712 228.701 159C228.189 159.288 227.789 159.68 227.501 160.176H225.221C225.621 159.104 226.285 158.248 227.213 157.608C228.157 156.968 229.253 156.648 230.501 156.648C231.317 156.648 232.069 156.792 232.757 157.08C233.445 157.368 234.045 157.776 234.557 158.304C235.069 158.816 235.469 159.432 235.757 160.152C236.045 160.856 236.189 161.632 236.189 162.48C236.189 163.328 236.045 164.112 235.757 164.832C235.469 165.536 235.069 166.152 234.557 166.68C234.045 167.192 233.445 167.592 232.757 167.88C232.069 168.168 231.317 168.312 230.501 168.312C229.253 168.312 228.157 167.992 227.213 167.352C226.285 166.712 225.621 165.856 225.221 164.784H227.501C227.789 165.28 228.189 165.672 228.701 165.96C229.229 166.248 229.829 166.392 230.501 166.392C231.429 166.392 232.205 166.112 232.829 165.552C233.469 164.992 233.869 164.272 234.029 163.392H228.557V161.568ZM237.628 156.96H248.236V158.784H243.964V168H241.9V158.784H237.628V156.96ZM255.523 156.648C256.355 156.648 257.123 156.8 257.827 157.104C258.531 157.392 259.139 157.8 259.651 158.328C260.163 158.84 260.563 159.456 260.851 160.176C261.155 160.88 261.307 161.648 261.307 162.48C261.307 163.312 261.155 164.088 260.851 164.808C260.563 165.512 260.163 166.128 259.651 166.656C259.139 167.168 258.531 167.576 257.827 167.88C257.123 168.168 256.355 168.312 255.523 168.312C254.691 168.312 253.923 168.168 253.219 167.88C252.515 167.576 251.899 167.168 251.371 166.656C250.859 166.128 250.459 165.512 250.171 164.808C249.883 164.088 249.739 163.312 249.739 162.48C249.739 161.648 249.883 160.88 250.171 160.176C250.459 159.456 250.859 158.84 251.371 158.328C251.899 157.8 252.515 157.392 253.219 157.104C253.923 156.8 254.691 156.648 255.523 156.648ZM255.523 166.392C256.067 166.392 256.563 166.288 257.011 166.08C257.475 165.872 257.867 165.592 258.187 165.24C258.523 164.888 258.779 164.48 258.955 164.016C259.147 163.536 259.243 163.024 259.243 162.48C259.243 161.936 259.147 161.424 258.955 160.944C258.779 160.464 258.523 160.048 258.187 159.696C257.867 159.344 257.475 159.072 257.011 158.88C256.563 158.672 256.067 158.568 255.523 158.568C254.979 158.568 254.475 158.672 254.011 158.88C253.563 159.072 253.171 159.344 252.835 159.696C252.515 160.048 252.259 160.464 252.067 160.944C251.891 161.424 251.803 161.936 251.803 162.48C251.803 163.024 251.891 163.536 252.067 164.016C252.259 164.48 252.515 164.888 252.835 165.24C253.171 165.592 253.563 165.872 254.011 166.08C254.475 166.288 254.979 166.392 255.523 166.392ZM277.687 168H275.599L272.023 160.704V168H269.959V156.96H272.311L276.655 165.84L281.023 156.96H283.327V168H281.263V160.704L277.687 168ZM292.226 156.648C293.058 156.648 293.826 156.8 294.53 157.104C295.234 157.392 295.842 157.8 296.354 158.328C296.866 158.84 297.266 159.456 297.554 160.176C297.858 160.88 298.01 161.648 298.01 162.48C298.01 163.312 297.858 164.088 297.554 164.808C297.266 165.512 296.866 166.128 296.354 166.656C295.842 167.168 295.234 167.576 294.53 167.88C293.826 168.168 293.058 168.312 292.226 168.312C291.394 168.312 290.626 168.168 289.922 167.88C289.218 167.576 288.602 167.168 288.074 166.656C287.562 166.128 287.162 165.512 286.874 164.808C286.586 164.088 286.442 163.312 286.442 162.48C286.442 161.648 286.586 160.88 286.874 160.176C287.162 159.456 287.562 158.84 288.074 158.328C288.602 157.8 289.218 157.392 289.922 157.104C290.626 156.8 291.394 156.648 292.226 156.648ZM292.226 166.392C292.77 166.392 293.266 166.288 293.714 166.08C294.178 165.872 294.57 165.592 294.89 165.24C295.226 164.888 295.482 164.48 295.658 164.016C295.85 163.536 295.946 163.024 295.946 162.48C295.946 161.936 295.85 161.424 295.658 160.944C295.482 160.464 295.226 160.048 294.89 159.696C294.57 159.344 294.178 159.072 293.714 158.88C293.266 158.672 292.77 158.568 292.226 158.568C291.682 158.568 291.178 158.672 290.714 158.88C290.266 159.072 289.874 159.344 289.538 159.696C289.218 160.048 288.962 160.464 288.77 160.944C288.594 161.424 288.506 161.936 288.506 162.48C288.506 163.024 288.594 163.536 288.77 164.016C288.962 164.48 289.218 164.888 289.538 165.24C289.874 165.592 290.266 165.872 290.714 166.08C291.178 166.288 291.682 166.392 292.226 166.392ZM316.707 171.024V168H301.131V156.96H303.195V166.176H308.019V156.96H310.083V166.176H314.907V156.96H316.971V166.176H318.771V171.024H316.707ZM332.246 156.96V168H330.182V163.344H323.726V168H321.662V156.96H323.726V161.52H330.182V156.96H332.246ZM349.588 156.96V168H347.524V156.96H349.588ZM341.5 160.608C342.22 160.608 342.836 160.712 343.348 160.92C343.876 161.112 344.308 161.376 344.644 161.712C344.98 162.048 345.228 162.44 345.388 162.888C345.564 163.336 345.652 163.808 345.652 164.304C345.652 164.8 345.564 165.272 345.388 165.72C345.228 166.168 344.98 166.56 344.644 166.896C344.308 167.232 343.876 167.504 343.348 167.712C342.836 167.904 342.22 168 341.5 168H336.076V156.96H338.14V160.608H341.5ZM341.428 166.176C342.1 166.176 342.628 166.016 343.012 165.696C343.396 165.376 343.588 164.912 343.588 164.304C343.588 163.696 343.396 163.232 343.012 162.912C342.628 162.592 342.1 162.432 341.428 162.432H338.14V166.176H341.428ZM353.42 168V156.96H355.484V165L361.94 156.96H364.004V168H361.94V159.96L355.484 168H353.42ZM358.7 153.552C359.388 153.552 359.956 153.344 360.404 152.928C360.868 152.496 361.148 151.968 361.244 151.344H363.068C363.02 151.904 362.876 152.424 362.636 152.904C362.396 153.384 362.076 153.808 361.676 154.176C361.292 154.528 360.844 154.808 360.332 155.016C359.82 155.224 359.276 155.328 358.7 155.328C358.108 155.328 357.556 155.224 357.044 155.016C356.532 154.808 356.084 154.528 355.7 154.176C355.316 153.808 355.004 153.384 354.764 152.904C354.524 152.424 354.38 151.904 354.332 151.344H356.132C356.228 151.968 356.5 152.496 356.948 152.928C357.412 153.344 357.996 153.552 358.7 153.552ZM366.946 170.808L368.626 168H367.354V165.336H370.018V168.24L368.458 170.808H366.946ZM44.912 193.176C44.624 192.68 44.224 192.288 43.712 192C43.2 191.712 42.616 191.568 41.96 191.568C41.416 191.568 40.92 191.672 40.472 191.88C40.024 192.072 39.632 192.344 39.296 192.696C38.976 193.048 38.72 193.464 38.528 193.944C38.352 194.424 38.264 194.936 38.264 195.48C38.264 196.024 38.352 196.536 38.528 197.016C38.72 197.496 38.976 197.912 39.296 198.264C39.632 198.616 40.024 198.896 40.472 199.104C40.92 199.296 41.416 199.392 41.96 199.392C42.616 199.392 43.2 199.248 43.712 198.96C44.224 198.672 44.624 198.28 44.912 197.784H47.168C46.768 198.856 46.104 199.712 45.176 200.352C44.264 200.992 43.192 201.312 41.96 201.312C41.144 201.312 40.384 201.168 39.68 200.88C38.976 200.576 38.368 200.168 37.856 199.656C37.344 199.128 36.936 198.512 36.632 197.808C36.344 197.088 36.2 196.312 36.2 195.48C36.2 194.648 36.344 193.88 36.632 193.176C36.936 192.456 37.344 191.84 37.856 191.328C38.368 190.8 38.976 190.392 39.68 190.104C40.384 189.8 41.144 189.648 41.96 189.648C43.192 189.648 44.264 189.968 45.176 190.608C46.104 191.248 46.768 192.104 47.168 193.176H44.912ZM48.7222 189.96H59.3302V191.784H55.0582V201H52.9942V191.784H48.7222V189.96ZM61.7403 201V189.96H63.8043V198L70.2603 189.96H72.3243V201H70.2603V192.96L63.8043 201H61.7403ZM86.0664 189.96V201H84.0024V191.784H79.2984V194.64C79.2984 195.344 79.2664 196.072 79.2024 196.824C79.1384 197.56 78.9784 198.24 78.7224 198.864C78.4664 199.488 78.0744 200 77.5464 200.4C77.0344 200.8 76.3224 201 75.4104 201H74.7144V199.056H75.1464C75.6584 199.056 76.0504 198.92 76.3224 198.648C76.6104 198.36 76.8184 198 76.9464 197.568C77.0904 197.136 77.1704 196.664 77.1864 196.152C77.2184 195.624 77.2344 195.12 77.2344 194.64V189.96H86.0664ZM95.8162 193.608C96.5362 193.608 97.1522 193.712 97.6642 193.92C98.1922 194.112 98.6242 194.376 98.9602 194.712C99.2962 195.048 99.5442 195.44 99.7042 195.888C99.8802 196.336 99.9682 196.808 99.9682 197.304C99.9682 197.8 99.8802 198.272 99.7042 198.72C99.5442 199.168 99.2962 199.56 98.9602 199.896C98.6242 200.232 98.1922 200.504 97.6642 200.712C97.1522 200.904 96.5362 201 95.8162 201H89.9122V189.96H91.9762V193.608H95.8162ZM95.7442 199.176C96.4162 199.176 96.9442 199.016 97.3282 198.696C97.7122 198.376 97.9042 197.912 97.9042 197.304C97.9042 196.696 97.7122 196.232 97.3282 195.912C96.9442 195.592 96.4162 195.432 95.7442 195.432H91.9762V199.176H95.7442ZM113.199 189.96V201H111.135V196.344H104.679V201H102.615V189.96H104.679V194.52H111.135V189.96H113.199ZM130.541 189.96V201H128.477V189.96H130.541ZM122.453 193.608C123.173 193.608 123.789 193.712 124.301 193.92C124.829 194.112 125.261 194.376 125.597 194.712C125.933 195.048 126.181 195.44 126.341 195.888C126.517 196.336 126.605 196.808 126.605 197.304C126.605 197.8 126.517 198.272 126.341 198.72C126.181 199.168 125.933 199.56 125.597 199.896C125.261 200.232 124.829 200.504 124.301 200.712C123.789 200.904 123.173 201 122.453 201H117.029V189.96H119.093V193.608H122.453ZM122.381 199.176C123.053 199.176 123.581 199.016 123.965 198.696C124.349 198.376 124.541 197.912 124.541 197.304C124.541 196.696 124.349 196.232 123.965 195.912C123.581 195.592 123.053 195.432 122.381 195.432H119.093V199.176H122.381ZM134.373 201V189.96H136.437V198L142.893 189.96H144.957V201H142.893V192.96L136.437 201H134.373ZM139.653 186.552C140.341 186.552 140.909 186.344 141.357 185.928C141.821 185.496 142.101 184.968 142.197 184.344H144.021C143.973 184.904 143.829 185.424 143.589 185.904C143.349 186.384 143.029 186.808 142.629 187.176C142.245 187.528 141.797 187.808 141.285 188.016C140.773 188.224 140.229 188.328 139.653 188.328C139.061 188.328 138.509 188.224 137.997 188.016C137.485 187.808 137.037 187.528 136.653 187.176C136.269 186.808 135.957 186.384 135.717 185.904C135.477 185.424 135.333 184.904 135.285 184.344H137.085C137.181 184.968 137.453 185.496 137.901 185.928C138.365 186.344 138.949 186.552 139.653 186.552ZM154.318 201V189.96H156.382V198L162.838 189.96H164.902V201H162.838V192.96L156.382 201H154.318ZM182.568 184.944V189.96H183.672C184.52 189.96 185.304 190.096 186.024 190.368C186.744 190.64 187.36 191.024 187.872 191.52C188.4 192.016 188.808 192.6 189.096 193.272C189.384 193.944 189.528 194.672 189.528 195.456C189.528 196.288 189.392 197.048 189.12 197.736C188.864 198.408 188.48 198.992 187.968 199.488C187.472 199.968 186.856 200.344 186.12 200.616C185.4 200.872 184.584 201 183.672 201H182.568V205.896H180.504V201H179.4C178.488 201 177.664 200.872 176.928 200.616C176.208 200.344 175.592 199.968 175.08 199.488C174.584 198.992 174.2 198.408 173.928 197.736C173.672 197.048 173.544 196.288 173.544 195.456C173.544 194.672 173.688 193.944 173.976 193.272C174.264 192.6 174.664 192.016 175.176 191.52C175.704 191.024 176.328 190.64 177.048 190.368C177.768 190.096 178.552 189.96 179.4 189.96H180.504V184.944H182.568ZM182.568 191.784V199.176H183.624C184.264 199.176 184.824 199.08 185.304 198.888C185.8 198.696 186.2 198.44 186.504 198.12C186.824 197.784 187.064 197.392 187.224 196.944C187.384 196.48 187.464 195.984 187.464 195.456C187.464 194.928 187.376 194.44 187.2 193.992C187.024 193.544 186.768 193.16 186.432 192.84C186.112 192.504 185.712 192.248 185.232 192.072C184.752 191.88 184.208 191.784 183.6 191.784H182.568ZM179.472 191.784C178.864 191.784 178.32 191.88 177.84 192.072C177.36 192.248 176.952 192.504 176.616 192.84C176.296 193.16 176.048 193.544 175.872 193.992C175.696 194.44 175.608 194.928 175.608 195.456C175.608 195.984 175.688 196.48 175.848 196.944C176.008 197.392 176.24 197.784 176.544 198.12C176.864 198.44 177.264 198.696 177.744 198.888C178.224 199.08 178.792 199.176 179.448 199.176H180.504V191.784H179.472ZM190.89 189.96H193.218L196.914 198.288L200.634 189.96H202.818L197.61 201.6C197.242 202.432 196.922 203.12 196.65 203.664C196.394 204.224 196.114 204.664 195.81 204.984C195.522 205.32 195.178 205.552 194.778 205.68C194.378 205.824 193.85 205.896 193.194 205.896H192.138V204.072H192.81C193.13 204.072 193.402 204.04 193.626 203.976C193.866 203.912 194.074 203.792 194.25 203.616C194.442 203.456 194.618 203.24 194.778 202.968C194.938 202.696 195.114 202.344 195.306 201.912L195.762 200.856L190.89 189.96ZM215.645 189.96V201H213.581V196.344H207.125V201H205.061V189.96H207.125V194.52H213.581V189.96H215.645ZM221.539 189.96V194.784L226.843 189.96H229.603L223.483 195.48L229.603 201H226.843L221.539 196.464V201H219.475V189.96H221.539ZM241.884 204.024V201H231.756V189.96H233.82V199.176H240.084V189.96H242.148V199.176H243.948V204.024H241.884ZM246.826 201V189.96H248.89V198L255.346 189.96H257.41V201H255.346V192.96L248.89 201H246.826ZM266.304 189.648C267.136 189.648 267.904 189.8 268.608 190.104C269.312 190.392 269.92 190.8 270.432 191.328C270.944 191.84 271.344 192.456 271.632 193.176C271.936 193.88 272.088 194.648 272.088 195.48C272.088 196.312 271.936 197.088 271.632 197.808C271.344 198.512 270.944 199.128 270.432 199.656C269.92 200.168 269.312 200.576 268.608 200.88C267.904 201.168 267.136 201.312 266.304 201.312C265.472 201.312 264.704 201.168 264 200.88C263.296 200.576 262.68 200.168 262.152 199.656C261.64 199.128 261.24 198.512 260.952 197.808C260.664 197.088 260.52 196.312 260.52 195.48C260.52 194.648 260.664 193.88 260.952 193.176C261.24 192.456 261.64 191.84 262.152 191.328C262.68 190.8 263.296 190.392 264 190.104C264.704 189.8 265.472 189.648 266.304 189.648ZM266.304 199.392C266.848 199.392 267.344 199.288 267.792 199.08C268.256 198.872 268.648 198.592 268.968 198.24C269.304 197.888 269.56 197.48 269.736 197.016C269.928 196.536 270.024 196.024 270.024 195.48C270.024 194.936 269.928 194.424 269.736 193.944C269.56 193.464 269.304 193.048 268.968 192.696C268.648 192.344 268.256 192.072 267.792 191.88C267.344 191.672 266.848 191.568 266.304 191.568C265.76 191.568 265.256 191.672 264.792 191.88C264.344 192.072 263.952 192.344 263.616 192.696C263.296 193.048 263.04 193.464 262.848 193.944C262.672 194.424 262.584 194.936 262.584 195.48C262.584 196.024 262.672 196.536 262.848 197.016C263.04 197.48 263.296 197.888 263.616 198.24C263.952 198.592 264.344 198.872 264.792 199.08C265.256 199.288 265.76 199.392 266.304 199.392ZM285.793 189.96V201H283.729V196.344H277.273V201H275.209V189.96H277.273V194.52H283.729V189.96H285.793ZM294.039 189.648C294.823 189.648 295.535 189.744 296.175 189.936C296.831 190.128 297.391 190.408 297.855 190.776C298.319 191.144 298.679 191.6 298.935 192.144C299.191 192.672 299.319 193.28 299.319 193.968V201H297.255V199.8C296.823 200.264 296.287 200.632 295.647 200.904C295.023 201.176 294.279 201.312 293.415 201.312C292.759 201.312 292.159 201.232 291.615 201.072C291.071 200.928 290.599 200.704 290.199 200.4C289.799 200.096 289.487 199.72 289.263 199.272C289.039 198.808 288.927 198.264 288.927 197.64C288.927 196.968 289.055 196.408 289.311 195.96C289.583 195.496 289.943 195.128 290.391 194.856C290.839 194.568 291.351 194.368 291.927 194.256C292.519 194.128 293.135 194.064 293.775 194.064H297.255C297.255 193.152 296.943 192.512 296.319 192.144C295.711 191.76 294.951 191.568 294.039 191.568C293.367 191.568 292.735 191.704 292.143 191.976C291.567 192.248 291.167 192.648 290.943 193.176H288.663C288.823 192.6 289.071 192.096 289.407 191.664C289.759 191.232 290.167 190.864 290.631 190.56C291.111 190.256 291.639 190.032 292.215 189.888C292.791 189.728 293.399 189.648 294.039 189.648ZM297.255 195.864H293.751C292.887 195.864 292.207 196.008 291.711 196.296C291.231 196.584 290.991 197.032 290.991 197.64C290.991 198.248 291.231 198.696 291.711 198.984C292.191 199.256 292.831 199.392 293.631 199.392C294.751 199.392 295.631 199.136 296.271 198.624C296.927 198.096 297.255 197.416 297.255 196.584V195.864ZM312.824 189.96V201H310.76V191.784H306.056V194.64C306.056 195.344 306.024 196.072 305.96 196.824C305.896 197.56 305.736 198.24 305.48 198.864C305.224 199.488 304.832 200 304.304 200.4C303.792 200.8 303.08 201 302.168 201H301.472V199.056H301.904C302.416 199.056 302.808 198.92 303.08 198.648C303.368 198.36 303.576 198 303.704 197.568C303.848 197.136 303.928 196.664 303.944 196.152C303.976 195.624 303.992 195.12 303.992 194.64V189.96H312.824ZM322.574 193.608C323.294 193.608 323.91 193.712 324.422 193.92C324.95 194.112 325.382 194.376 325.718 194.712C326.054 195.048 326.302 195.44 326.462 195.888C326.638 196.336 326.726 196.808 326.726 197.304C326.726 197.8 326.638 198.272 326.462 198.72C326.302 199.168 326.054 199.56 325.718 199.896C325.382 200.232 324.95 200.504 324.422 200.712C323.91 200.904 323.294 201 322.574 201H316.67V189.96H318.734V193.608H322.574ZM322.502 199.176C323.174 199.176 323.702 199.016 324.086 198.696C324.47 198.376 324.662 197.912 324.662 197.304C324.662 196.696 324.47 196.232 324.086 195.912C323.702 195.592 323.174 195.432 322.502 195.432H318.734V199.176H322.502ZM339.957 189.96V201H337.893V196.344H331.437V201H329.373V189.96H331.437V194.52H337.893V189.96H339.957ZM357.299 189.96V201H355.235V189.96H357.299ZM349.211 193.608C349.931 193.608 350.547 193.712 351.059 193.92C351.587 194.112 352.019 194.376 352.355 194.712C352.691 195.048 352.939 195.44 353.099 195.888C353.275 196.336 353.363 196.808 353.363 197.304C353.363 197.8 353.275 198.272 353.099 198.72C352.939 199.168 352.691 199.56 352.355 199.896C352.019 200.232 351.587 200.504 351.059 200.712C350.547 200.904 349.931 201 349.211 201H343.787V189.96H345.851V193.608H349.211ZM349.139 199.176C349.811 199.176 350.339 199.016 350.723 198.696C351.107 198.376 351.299 197.912 351.299 197.304C351.299 196.696 351.107 196.232 350.723 195.912C350.339 195.592 349.811 195.432 349.139 195.432H345.851V199.176H349.139ZM361.131 201V189.96H363.195V198L369.651 189.96H371.715V201H369.651V192.96L363.195 201H361.131ZM366.411 186.552C367.099 186.552 367.667 186.344 368.115 185.928C368.579 185.496 368.859 184.968 368.955 184.344H370.779C370.731 184.904 370.587 185.424 370.347 185.904C370.107 186.384 369.787 186.808 369.387 187.176C369.003 187.528 368.555 187.808 368.043 188.016C367.531 188.224 366.987 188.328 366.411 188.328C365.819 188.328 365.267 188.224 364.755 188.016C364.243 187.808 363.795 187.528 363.411 187.176C363.027 186.808 362.715 186.384 362.475 185.904C362.235 185.424 362.091 184.904 362.043 184.344H363.843C363.939 184.968 364.211 185.496 364.659 185.928C365.123 186.344 365.707 186.552 366.411 186.552ZM44.912 226.176C44.624 225.68 44.224 225.288 43.712 225C43.2 224.712 42.616 224.568 41.96 224.568C41.416 224.568 40.92 224.672 40.472 224.88C40.024 225.072 39.632 225.344 39.296 225.696C38.976 226.048 38.72 226.464 38.528 226.944C38.352 227.424 38.264 227.936 38.264 228.48C38.264 229.024 38.352 229.536 38.528 230.016C38.72 230.496 38.976 230.912 39.296 231.264C39.632 231.616 40.024 231.896 40.472 232.104C40.92 232.296 41.416 232.392 41.96 232.392C42.616 232.392 43.2 232.248 43.712 231.96C44.224 231.672 44.624 231.28 44.912 230.784H47.168C46.768 231.856 46.104 232.712 45.176 233.352C44.264 233.992 43.192 234.312 41.96 234.312C41.144 234.312 40.384 234.168 39.68 233.88C38.976 233.576 38.368 233.168 37.856 232.656C37.344 232.128 36.936 231.512 36.632 230.808C36.344 230.088 36.2 229.312 36.2 228.48C36.2 227.648 36.344 226.88 36.632 226.176C36.936 225.456 37.344 224.84 37.856 224.328C38.368 223.8 38.976 223.392 39.68 223.104C40.384 222.8 41.144 222.648 41.96 222.648C43.192 222.648 44.264 222.968 45.176 223.608C46.104 224.248 46.768 225.104 47.168 226.176H44.912ZM57.8902 234H55.8022L52.2262 226.704V234H50.1622V222.96H52.5142L56.8582 231.84L61.2262 222.96H63.5302V234H61.4662V226.704L57.8902 234ZM71.7813 222.648C72.5653 222.648 73.2773 222.744 73.9173 222.936C74.5733 223.128 75.1333 223.408 75.5973 223.776C76.0613 224.144 76.4213 224.6 76.6773 225.144C76.9333 225.672 77.0613 226.28 77.0613 226.968V234H74.9973V232.8C74.5653 233.264 74.0293 233.632 73.3893 233.904C72.7653 234.176 72.0213 234.312 71.1573 234.312C70.5013 234.312 69.9013 234.232 69.3573 234.072C68.8133 233.928 68.3413 233.704 67.9413 233.4C67.5413 233.096 67.2293 232.72 67.0053 232.272C66.7813 231.808 66.6693 231.264 66.6693 230.64C66.6693 229.968 66.7973 229.408 67.0533 228.96C67.3253 228.496 67.6853 228.128 68.1333 227.856C68.5813 227.568 69.0933 227.368 69.6693 227.256C70.2613 227.128 70.8773 227.064 71.5173 227.064H74.9973C74.9973 226.152 74.6853 225.512 74.0613 225.144C73.4533 224.76 72.6933 224.568 71.7813 224.568C71.1093 224.568 70.4773 224.704 69.8853 224.976C69.3093 225.248 68.9093 225.648 68.6853 226.176H66.4053C66.5653 225.6 66.8133 225.096 67.1493 224.664C67.5013 224.232 67.9093 223.864 68.3733 223.56C68.8533 223.256 69.3813 223.032 69.9573 222.888C70.5333 222.728 71.1413 222.648 71.7813 222.648ZM74.9973 228.864H71.4933C70.6293 228.864 69.9493 229.008 69.4533 229.296C68.9733 229.584 68.7333 230.032 68.7333 230.64C68.7333 231.248 68.9733 231.696 69.4533 231.984C69.9333 232.256 70.5733 232.392 71.3733 232.392C72.4933 232.392 73.3733 232.136 74.0133 231.624C74.6693 231.096 74.9973 230.416 74.9973 229.584V228.864ZM80.6544 238.896V222.96H82.7184V224.16C83.1344 223.696 83.6624 223.328 84.3024 223.056C84.9424 222.784 85.6544 222.648 86.4384 222.648C87.3504 222.648 88.1504 222.808 88.8384 223.128C89.5424 223.448 90.1264 223.88 90.5904 224.424C91.0704 224.968 91.4304 225.592 91.6704 226.296C91.9104 226.984 92.0304 227.712 92.0304 228.48C92.0304 229.248 91.9104 229.984 91.6704 230.688C91.4304 231.376 91.0704 231.992 90.5904 232.536C90.1264 233.08 89.5424 233.512 88.8384 233.832C88.1504 234.152 87.3504 234.312 86.4384 234.312C85.6544 234.312 84.9424 234.176 84.3024 233.904C83.6624 233.632 83.1344 233.264 82.7184 232.8V238.896H80.6544ZM82.6464 228.48C82.6464 229.136 82.7504 229.712 82.9584 230.208C83.1664 230.688 83.4384 231.096 83.7744 231.432C84.1264 231.752 84.5264 231.992 84.9744 232.152C85.4224 232.312 85.8864 232.392 86.3664 232.392C86.8944 232.392 87.3824 232.288 87.8304 232.08C88.2784 231.872 88.6544 231.592 88.9584 231.24C89.2784 230.872 89.5264 230.456 89.7024 229.992C89.8784 229.512 89.9664 229.008 89.9664 228.48C89.9664 227.952 89.8784 227.456 89.7024 226.992C89.5264 226.512 89.2784 226.096 88.9584 225.744C88.6544 225.376 88.2784 225.088 87.8304 224.88C87.3824 224.672 86.8944 224.568 86.3664 224.568C85.8864 224.568 85.4224 224.648 84.9744 224.808C84.5264 224.968 84.1264 225.216 83.7744 225.552C83.4384 225.872 83.1664 226.28 82.9584 226.776C82.7504 227.256 82.6464 227.824 82.6464 228.48ZM93.4644 222.96H104.072V224.784H99.8004V234H97.7364V224.784H93.4644V222.96ZM114.599 217.944V222.96H115.703C116.551 222.96 117.335 223.096 118.055 223.368C118.775 223.64 119.391 224.024 119.903 224.52C120.431 225.016 120.839 225.6 121.127 226.272C121.415 226.944 121.559 227.672 121.559 228.456C121.559 229.288 121.423 230.048 121.151 230.736C120.895 231.408 120.511 231.992 119.999 232.488C119.503 232.968 118.887 233.344 118.151 233.616C117.431 233.872 116.615 234 115.703 234H114.599V238.896H112.535V234H111.431C110.519 234 109.695 233.872 108.959 233.616C108.239 233.344 107.623 232.968 107.111 232.488C106.615 231.992 106.231 231.408 105.959 230.736C105.703 230.048 105.575 229.288 105.575 228.456C105.575 227.672 105.719 226.944 106.007 226.272C106.295 225.6 106.695 225.016 107.207 224.52C107.735 224.024 108.359 223.64 109.079 223.368C109.799 223.096 110.583 222.96 111.431 222.96H112.535V217.944H114.599ZM114.599 224.784V232.176H115.655C116.295 232.176 116.855 232.08 117.335 231.888C117.831 231.696 118.231 231.44 118.535 231.12C118.855 230.784 119.095 230.392 119.255 229.944C119.415 229.48 119.495 228.984 119.495 228.456C119.495 227.928 119.407 227.44 119.231 226.992C119.055 226.544 118.799 226.16 118.463 225.84C118.143 225.504 117.743 225.248 117.263 225.072C116.783 224.88 116.239 224.784 115.631 224.784H114.599ZM111.503 224.784C110.895 224.784 110.351 224.88 109.871 225.072C109.391 225.248 108.983 225.504 108.647 225.84C108.327 226.16 108.079 226.544 107.903 226.992C107.727 227.44 107.639 227.928 107.639 228.456C107.639 228.984 107.719 229.48 107.879 229.944C108.039 230.392 108.271 230.784 108.575 231.12C108.895 231.44 109.295 231.696 109.775 231.888C110.255 232.08 110.823 232.176 111.479 232.176H112.535V224.784H111.503ZM129.734 222.648C130.566 222.648 131.334 222.8 132.038 223.104C132.742 223.392 133.35 223.8 133.862 224.328C134.374 224.84 134.774 225.456 135.062 226.176C135.366 226.88 135.518 227.648 135.518 228.48C135.518 229.312 135.366 230.088 135.062 230.808C134.774 231.512 134.374 232.128 133.862 232.656C133.35 233.168 132.742 233.576 132.038 233.88C131.334 234.168 130.566 234.312 129.734 234.312C128.902 234.312 128.134 234.168 127.43 233.88C126.726 233.576 126.11 233.168 125.582 232.656C125.07 232.128 124.67 231.512 124.382 230.808C124.094 230.088 123.95 229.312 123.95 228.48C123.95 227.648 124.094 226.88 124.382 226.176C124.67 225.456 125.07 224.84 125.582 224.328C126.11 223.8 126.726 223.392 127.43 223.104C128.134 222.8 128.902 222.648 129.734 222.648ZM129.734 232.392C130.278 232.392 130.774 232.288 131.222 232.08C131.686 231.872 132.078 231.592 132.398 231.24C132.734 230.888 132.99 230.48 133.166 230.016C133.358 229.536 133.454 229.024 133.454 228.48C133.454 227.936 133.358 227.424 133.166 226.944C132.99 226.464 132.734 226.048 132.398 225.696C132.078 225.344 131.686 225.072 131.222 224.88C130.774 224.672 130.278 224.568 129.734 224.568C129.19 224.568 128.686 224.672 128.222 224.88C127.774 225.072 127.382 225.344 127.046 225.696C126.726 226.048 126.47 226.464 126.278 226.944C126.102 227.424 126.014 227.936 126.014 228.48C126.014 229.024 126.102 229.536 126.278 230.016C126.47 230.48 126.726 230.888 127.046 231.24C127.382 231.592 127.774 231.872 128.222 232.08C128.686 232.288 129.19 232.392 129.734 232.392ZM149.223 222.96V234H147.159V229.344H140.703V234H138.639V222.96H140.703V227.52H147.159V222.96H149.223ZM152.573 231.336H155.237V234H152.573V231.336Z" fill="white"/>
</g>
<rect x="4.86373" y="4.86373" width="556.258" height="557.853" rx="11.9723" stroke="#C4C4C4" stroke-width="9.72746"/>
<defs>
<radialGradient id="paint0_radial_161_67" cx="0" cy="0" r="1" gradientUnits="userSpaceOnUse" gradientTransform="translate(282.993 283.79) rotate(90) scale(283.79 337.49)">
<stop stop-color="#ABDD65"/>
<stop offset="1" stop-color="#2F2F2F"/>
</radialGradient>
<clipPath id="clip0_161_67">
<rect width="565.986" height="567.58" rx="16.836" fill="white"/>
</clipPath>
</defs>
</svg>
