<svg width="1440" height="764" viewBox="0 0 1440 764" fill="none" xmlns="http://www.w3.org/2000/svg">
<g clip-path="url(#clip0_198_109)">
<rect width="1440" height="764" fill="url(#paint0_radial_198_109)"/>
<path d="M219.12 104.32H284.28V111.88H255.84V184H247.56V111.88H219.12V104.32ZM335.168 156.28C335.168 157.36 335.168 158.44 334.928 159.76H290.048C291.128 170.2 299.288 178.36 309.728 178.36C317.768 178.36 323.168 175.12 326.288 169.48H334.448C330.608 179.68 321.608 185.56 309.728 185.56C293.648 185.56 281.888 173.68 281.888 156.76C281.888 140.44 293.048 128.2 309.248 128.2C324.248 128.2 335.168 140.56 335.168 156.28ZM290.048 152.56H327.008C325.808 142.96 319.448 135.4 309.248 135.4C298.328 135.4 291.368 142.36 290.048 152.56ZM396.502 129.76L374.422 156.64L396.982 184H387.142L369.502 162.64L351.982 184H342.502L364.822 156.88L342.622 129.76H352.462L369.742 150.88L387.022 129.76H396.502ZM451.727 129.76H459.647V184H451.727V160.36H417.047V184H409.127V129.76H417.047V153.16H451.727V129.76ZM487.711 184H479.791V129.76H487.711V172.36L522.391 129.76H530.311V184H522.391V141.4L487.711 184ZM550.455 129.76H558.375V154.84L586.455 129.76H596.655L566.175 156.88L596.775 184H586.455L558.375 160.36V184H550.455V129.76ZM628.877 128.2C643.637 128.2 654.077 135.88 654.077 149.2V184H646.157V177.28C641.717 182.32 635.237 185.56 626.597 185.56C613.997 185.56 604.157 179.68 604.157 167.92C604.157 155.44 614.597 150.28 627.077 150.28H646.157V149.2C646.157 139.36 638.597 135.4 628.637 135.4C620.117 135.4 613.997 139.36 611.717 144.52H603.197C606.317 134.32 616.157 128.2 628.877 128.2ZM646.157 161.68V157.48H626.837C617.717 157.48 612.077 160.96 612.077 167.92C612.077 174.88 618.077 178.36 626.717 178.36C639.317 178.36 646.157 170.2 646.157 161.68ZM758.024 199.12H750.104V184H701.384V199.12H693.464V176.8H699.344C705.224 172 706.904 162.04 706.904 152.2V129.76H749.264V176.8H758.024V199.12ZM714.824 152.08C714.824 160.24 713.864 170.44 709.304 176.8H741.344V136.96H714.824V152.08ZM781.778 129.76H823.538V184H815.618V136.96H789.698V152.92C789.698 166.72 789.458 184 771.698 184H769.418V176.44H770.498C781.538 176.44 781.778 163.72 781.778 153.16V129.76ZM877.978 164.92H864.058L847.618 184H837.538L854.218 164.56C844.018 162.88 839.458 155.44 839.458 147.28C839.458 137.8 845.578 129.76 859.138 129.76H885.898V184H877.978V164.92ZM877.978 136.96H859.498C852.058 136.96 847.378 140.56 847.378 147.28C847.378 154.12 852.058 157.72 859.498 157.72H877.978V136.96ZM991.11 199.12H983.19V184H934.47V199.12H926.55V176.8H932.43C938.31 172 939.99 162.04 939.99 152.2V129.76H982.35V176.8H991.11V199.12ZM947.91 152.08C947.91 160.24 946.95 170.44 942.39 176.8H974.43V136.96H947.91V152.08ZM997.317 129.76H1006.08L1026.36 174.64L1046.64 129.76H1054.92L1030.08 184.36C1022.88 199.96 1021.56 208.48 1009.2 208.48H1004.88V201.28H1006.8C1013.76 201.28 1016.04 198.52 1020 188.8L1022.04 183.88L997.317 129.76ZM1141.8 184H1066.2V129.76H1074.12V176.8H1100.04V129.76H1107.96V176.8H1133.88V129.76H1141.8V184ZM1169.86 184H1161.94V129.76H1169.86V172.36L1204.54 129.76H1212.46V184H1204.54V141.4L1169.86 184Z" fill="white"/>
<rect x="307" y="304" width="827" height="410.234" rx="8.4921" fill="#E3E3E3" stroke="#E3E3E3" stroke-width="6.53239"/>
<rect x="322.024" y="321.637" width="796.951" height="378.878" rx="22.2101" fill="#353535" stroke="#E3E3E3" stroke-width="6.07832"/>
<path d="M898.12 696.596C987.981 623.518 855.453 418.352 777.956 324.904L669.547 324.904L753.14 696.596L898.12 696.596Z" fill="#ABDD65"/>
<path d="M821.966 696.596C731.65 623.518 864.848 418.352 942.736 324.904L1051.69 324.904L967.678 696.597L821.966 696.596Z" fill="#C8FC7E"/>
<path d="M384.898 562.975H422.179V613.392H412.232V571.859H394.845V586.893C394.845 599.497 393.099 613.392 378.52 613.392H374.041V604.432H376.926C384.443 604.432 384.898 595.245 384.898 587.576V562.975ZM470.364 577.326L453.204 615.29C448.42 625.768 446.902 628.881 437.866 628.881H432.552V620.529H436.652C439.385 620.529 441.359 619.01 443.106 615.214L444.472 612.101L428.679 577.326H439.233L449.711 600.56L460.189 577.326H470.364ZM474.873 589.55V577.326H484.44V587.88C484.44 592.056 486.869 593.65 492.336 593.65C494.614 593.65 498.031 593.347 500.46 592.815V577.326H510.027V613.392H500.46V601.699C498.031 602.078 493.931 602.458 491.88 602.458C480.795 602.458 474.873 598.586 474.873 589.55ZM520.958 613.392V577.326H530.525V605.04H543.433V577.326H553V605.04H565.907V577.326H575.474V613.392H520.958ZM613.386 577.326H622.953V613.392H613.386V590.537L595.998 613.392H586.431V577.326H595.998V600.18L613.386 577.326ZM658.791 602.458H669.117C666.384 609.747 659.095 614.379 651.35 614.379C640.112 614.379 631.836 606.254 631.836 595.321C631.836 584.539 639.809 576.339 650.97 576.339C662.056 576.339 669.724 584.539 669.724 595.169C669.724 596.384 669.724 597.295 669.573 598.51H641.783C642.77 602.838 646.642 605.571 651.35 605.571C654.387 605.571 657.12 604.66 658.791 602.458ZM642.011 591.372H659.55C658.943 587.196 655.374 584.539 650.97 584.539C646.642 584.539 642.618 587.272 642.011 591.372ZM709.877 576.339C720.735 576.339 728.1 581.654 728.1 590.993V613.392H718.533V610.658C715.952 613.24 711.472 614.379 706.84 614.379C698.033 614.379 692.642 609.899 692.642 602.154C692.642 593.043 701.222 590.689 709.65 590.689H718.533C718.533 586.513 714.661 584.843 710.105 584.843C706.081 584.843 702.968 586.057 701.677 589.171H691.807C693.932 580.439 701.753 576.339 709.877 576.339ZM718.533 599.345V597.826H709.65C705.018 597.826 702.209 599.269 702.209 602.23C702.209 604.736 704.562 606.71 708.738 606.71C713.902 606.71 718.533 604.204 718.533 599.345ZM738.362 577.326H747.929V591.296L762.659 577.326H775.946L756.509 595.397L775.87 613.392H762.659L747.929 600.256V613.392H738.362V577.326ZM782.184 613.392V577.326H791.751V605.04H808.227V577.326H817.794V605.04H823.868V622.959H814.833V613.392H782.184ZM859.04 577.326H868.607V613.392H859.04V590.537L841.653 613.392H832.086V577.326H841.653V600.18L859.04 577.326ZM906.495 577.326H916.062V613.392H906.495V590.537L889.108 613.392H879.541V577.326H889.108V600.18L906.495 577.326Z" fill="white"/>
<path d="M395.491 519.883H428.468V530.559H379.425V519.883L407.752 494.622C411.979 490.817 415.573 486.378 415.573 481.093C415.573 474.117 410.288 469.677 403.207 469.677C396.654 469.677 391.157 473.06 389.466 480.353H377.417C379.848 467.669 389.043 459.002 402.678 459.002C417.264 459.002 427.2 467.564 427.2 480.881C427.2 488.28 423.183 495.045 416.842 500.752L395.491 519.883ZM439.579 497.476H458.288V478.767H468.435V497.476H487.143V507.517H468.435V526.225H458.288V507.517H439.579V497.476ZM512.374 530.559V473.905L497.576 487.329V473.377L511.845 460.376H524V530.559H512.374Z" fill="white"/>
<rect x="688.223" y="703.269" width="65.4169" height="58.6496" fill="#E3E3E3"/>
<rect x="561.9" y="746.128" width="318.061" height="29.3248" rx="14.6624" fill="#E3E3E3"/>
</g>
<defs>
<radialGradient id="paint0_radial_198_109" cx="0" cy="0" r="1" gradientUnits="userSpaceOnUse" gradientTransform="translate(720 382) rotate(90) scale(382 577.659)">
<stop stop-color="#ABDD65"/>
<stop offset="1" stop-color="#3B3B3B"/>
</radialGradient>
<clipPath id="clip0_198_109">
<rect width="1440" height="764" fill="white"/>
</clipPath>
</defs>
</svg>
