<svg width="741" height="623" viewBox="0 0 741 623" fill="none" xmlns="http://www.w3.org/2000/svg">
<path d="M140.487 616.568L496.755 6.43213H600.513L244.245 616.568H140.487ZM321.375 156.209C321.375 177.65 317.09 197.865 308.52 216.855C300.563 235.846 289.544 252.385 275.465 266.475C261.385 280.564 244.245 291.897 224.045 300.473C204.456 308.437 183.337 312.419 160.688 312.419C137.426 312.419 116.001 308.437 96.4126 300.473C76.824 291.897 59.9901 280.564 45.9108 266.475C31.8315 252.385 20.5068 235.846 11.9368 216.855C3.97893 197.865 0 177.65 0 156.209C0 134.769 3.97893 114.554 11.9368 95.5634C20.5068 76.5732 31.8315 60.0334 45.9108 45.9439C59.9901 31.8544 76.824 20.8279 96.4126 12.8643C116.001 4.2881 137.426 0 160.688 0C183.337 0 204.456 4.2881 224.045 12.8643C244.245 20.8279 261.385 31.8544 275.465 45.9439C289.544 60.0334 300.563 76.5732 308.52 95.5634C317.09 114.554 321.375 134.769 321.375 156.209ZM220.372 156.209C220.372 139.057 214.862 124.355 203.844 112.103C192.825 99.8515 178.44 93.7257 160.688 93.7257C142.936 93.7257 128.55 99.8515 117.532 112.103C106.513 124.355 101.004 139.057 101.004 156.209C101.004 173.362 106.513 188.064 117.532 200.316C128.55 212.567 142.936 218.693 160.688 218.693C178.44 218.693 192.825 212.567 203.844 200.316C214.862 188.064 220.372 173.362 220.372 156.209ZM741 466.791C741 488.231 736.715 508.446 728.145 527.437C720.187 546.427 709.169 562.967 695.089 577.056C681.01 591.146 663.87 602.478 643.669 611.055C624.081 619.018 602.962 623 580.312 623C557.051 623 535.626 619.018 516.037 611.055C496.449 602.478 479.615 591.146 465.535 577.056C451.456 562.967 440.131 546.427 431.561 527.437C423.603 508.446 419.625 488.231 419.625 466.791C419.625 445.35 423.603 425.135 431.561 406.145C440.131 387.154 451.456 370.615 465.535 356.525C479.615 342.436 496.449 331.409 516.037 323.445C535.626 314.869 557.051 310.581 580.312 310.581C602.962 310.581 624.081 314.869 643.669 323.445C663.87 331.409 681.01 342.436 695.089 356.525C709.169 370.615 720.187 387.154 728.145 406.145C736.715 425.135 741 445.35 741 466.791ZM639.996 466.791C639.996 449.638 634.487 434.936 623.468 422.684C612.45 410.433 598.064 404.307 580.312 404.307C562.56 404.307 548.175 410.433 537.156 422.684C526.138 434.936 520.628 449.638 520.628 466.791C520.628 483.943 526.138 498.645 537.156 510.897C548.175 523.148 562.56 529.274 580.312 529.274C598.064 529.274 612.45 523.148 623.468 510.897C634.487 498.645 639.996 483.943 639.996 466.791Z" fill="#363636"/>
</svg>
