<svg width="1330" height="445" viewBox="0 0 1330 445" fill="none" xmlns="http://www.w3.org/2000/svg">
<path d="M318.529 160.843L202.577 287.508L318.529 414.172H242.137L152.103 316.325V258.69L242.137 160.843H318.529ZM166.427 160.843L50.4736 287.508L166.427 414.172H90.034L0 316.325V258.69L90.034 160.843H166.427Z" fill="#C8FC7E"/>
<path d="M932.995 0V445H871.608V99.1868L699.725 445H630.153L458.27 99.1868V445H396.883V0H474.64L665.621 384.684L856.602 0H932.995Z" fill="#C8FC7E"/>
<path d="M1239.97 160.843L1330 258.69V316.325L1239.97 414.172H1163.57L1279.53 287.508L1163.57 160.843H1239.97ZM1087.86 160.843L1177.9 258.69V316.325L1087.86 414.172H1011.47L1127.42 287.508L1011.47 160.843H1087.86Z" fill="#C8FC7E"/>
</svg>
